<svg xmlns="http://www.w3.org/2000/svg" xmlns:svg="http://www.w3.org/2000/svg" width="56.69" height="56.69"><g><title>Layer 1</title><g stroke="null" id="svg_1"><path stroke="null" id="svg_2" d="m39.100254 25.500191c-3.602234 0 -4.1 3.6 -4.1 3.595427l7.65844 0c0 0 0.05 -3.6 -3.56 -3.595427z"/><path stroke="null" id="svg_3" d="m21.724636 29.095617l-6.78909 0l0 6.232981l6.010533 0c0.102144 0 0.26 0 0.43 0c0.966951 -0.02 2.8 -0.3 2.8 -3.030235c0 -3.24 -2.46 -3.2 -2.46 -3.202745z"/><path stroke="null" id="svg_4" d="m28.110828 0.354909c-15.434908 0 -27.95 12.51 -27.95 27.945128c0 15.43 12.51 27.95 27.95 27.947399c15.43264 0 27.95 -12.51 27.95 -27.947399c0 -15.43 -12.51 -27.95 -27.95 -27.945128zm5.882286 17.171338l9.620716 0l0 2.871346l-9.620716 0l0 -2.871346zm-4.863127 15.062651c0 7.12 -7.41 6.88 -7.41 6.882156l-6.78909 0l-0.198612 0l-5.14686 0l0 -23.318062l5.14686 0l0.198612 0l6.78909 0c3.686218 0 6.6 2.04 6.6 6.20801c0 4.17 -3.56 4.44 -3.56 4.437536c4.690624 0 4.37 5.79 4.37 5.790359zm17.997557 -0.381332l-12.083488 0c0 4.33 4.1 4.06 4.1 4.058475c3.874619 0 3.74 -2.51 3.74 -2.509308l4.105007 0c0 6.66 -7.98 6.2 -7.98 6.202339c-9.574184 0 -8.96 -8.91 -8.96 -8.914799s-0.009081 -8.96 8.96 -8.95792c9.439129 0 8.12 10.12 8.12 10.121212z"/><path stroke="null" id="svg_5" d="m23.373674 22.723042c0 -2.43 -1.65 -2.43 -1.65 -2.425322l-0.873888 0l-5.915202 0l0 5.202471l6.368035 0c1.098602 0 2.07 -0.35 2.07 -2.777149z"/></g></g></svg>