<?xml version="1.0" encoding="UTF-8"?><svg xmlns="http://www.w3.org/2000/svg" xmlns:xlink="http://www.w3.org/1999/xlink" viewBox="0 0 50 50" version="1.1"><path d="M26 3C13.852 3 4 12.852 4 25s9.852 22 22 22 22-9.852 22-22c0-3.934-1.04-7.625-2.848-10.82a45.939 45.939 0 0 1-2.746 4.21l-.207.231c-.07.059-.941.813-2.484.813-1.442 0-3.469-.66-5.969-3.16-5.074-5.075-2.777-8.122-2.5-8.454l.254-.238a45.693 45.693 0 0 1 3.797-2.523A21.96 21.96 0 0 0 26 3zm18.7.008c-2.614.144-7.29 2.07-12.305 5.781 0 0-1.836 2.18 2.414 6.426 4.222 4.226 6.39 2.285 6.39 2.285 4.848-6.61 6.742-12.656 5.364-14.04-.352-.347-.993-.5-1.864-.452zm-38.981.008c-.985-.07-1.727.105-2.164.539-1.188 1.191-.426 4.675 1.93 9.008a24.116 24.116 0 0 1 6.792-7.235C9.652 3.93 7.355 3.133 5.72 3.016z" id="surface1"/><metadata><rdf:RDF xmlns:rdf="http://www.w3.org/1999/02/22-rdf-syntax-ns#" xmlns:rdfs="http://www.w3.org/2000/01/rdf-schema#" xmlns:dc="http://purl.org/dc/elements/1.1/"><rdf:Description about="https://iconscout.com/legal#licenses" dc:title="freebsd,filled" dc:description="freebsd,filled" dc:publisher="Iconscout" dc:date="2017-12-11" dc:format="image/svg+xml" dc:language="en"><dc:creator><rdf:Bag><rdf:li>Icons8</rdf:li></rdf:Bag></dc:creator></rdf:Description></rdf:RDF></metadata></svg>