<?xml version="1.0" encoding="utf-8"?>
<!-- Generator: Adobe Illustrator 16.0.0, SVG Export Plug-In . SVG Version: 6.00 Build 0)  -->
<!DOCTYPE svg PUBLIC "-//W3C//DTD SVG 1.1//EN" "http://www.w3.org/Graphics/SVG/1.1/DTD/svg11.dtd">
<svg version="1.1" id="Layer_1" xmlns="http://www.w3.org/2000/svg" xmlns:xlink="http://www.w3.org/1999/xlink" x="0px" y="0px"
	 width="40px" height="40px" viewBox="236 236 40 40" enable-background="new 236 236 40 40" xml:space="preserve">
<path id="github-2-circle-icon" d="M247.355,261.364c0,0.066-0.076,0.119-0.169,0.119s-0.169-0.053-0.169-0.119
	s0.076-0.12,0.169-0.12S247.355,261.298,247.355,261.364z M247.588,261.638c-0.109,0-0.197,0.062-0.197,0.14
	s0.088,0.141,0.197,0.141s0.197-0.063,0.197-0.141S247.697,261.638,247.588,261.638z M248.544,262.56
	c-0.135,0-0.244,0.078-0.244,0.174c0,0.095,0.109,0.173,0.244,0.173c0.134,0,0.244-0.078,0.244-0.173
	C248.788,262.638,248.678,262.56,248.544,262.56z M246.365,260.66c-0.072,0-0.13,0.042-0.13,0.093c0,0.05,0.058,0.092,0.13,0.092
	c0.071,0,0.129-0.042,0.129-0.092C246.495,260.702,246.437,260.66,246.365,260.66z M246.773,260.918
	c-0.08,0-0.144,0.046-0.144,0.103s0.064,0.102,0.144,0.102c0.079,0,0.144-0.045,0.144-0.102S246.852,260.918,246.773,260.918z
	 M248.031,262.097c-0.121,0-0.22,0.07-0.22,0.156s0.099,0.155,0.22,0.155s0.219-0.069,0.219-0.155S248.152,262.097,248.031,262.097z
	 M276,256c0,11.046-8.954,20-20,20s-20-8.954-20-20s8.954-20,20-20S276,244.954,276,256z M265.699,257.054
	c0.059-0.132,0.116-0.265,0.167-0.404c1.565-0.126,3.178-0.113,4.8,0.044l0.025-0.267c-1.601-0.155-3.192-0.169-4.738-0.051
	c0.248-0.793,0.379-1.689,0.37-2.708c-0.021-2.165-0.742-3.85-1.877-5.249c0.218-1.318,0.054-2.636-0.357-3.954
	c-1.62,0.133-3.079,0.664-4.378,1.586c-2.428-0.493-4.854-0.524-7.282,0c-1.515-1.022-3.002-1.524-4.467-1.586
	c-0.434,1.452-0.501,2.882-0.134,4.289c-1.278,1.356-1.767,3.002-1.743,4.825c0.014,1.043,0.174,1.972,0.471,2.792
	c-1.523-0.112-3.09-0.097-4.665,0.056l0.026,0.267c1.604-0.155,3.199-0.168,4.748-0.047c0.057,0.138,0.114,0.275,0.179,0.406
	c-1.678-0.044-3.189,0.102-4.604,0.449l0.064,0.261c1.436-0.353,2.974-0.495,4.691-0.438c1.136,2.018,3.322,3.203,6.505,3.579
	c-0.74,0.602-1.137,1.31-1.24,2.111c0,0-0.334,0-1.686,0c-2.265,0-2.882-2.887-5.227-2.603c2.275,1.129,1.821,4.735,5.462,4.735
	c1.224,0,1.484,0,1.53,0v3.307c0.016,0.534-0.217,0.892-0.592,1.139c1.304,0.132,2.284-0.52,2.284-1.317c0-0.799,0-3.981,0-4.371
	c0-0.389,0.408-0.419,0.408-0.419v5.103c0.017,0.508-0.229,0.796-0.492,1.072c1.149,0.046,2.229-0.184,2.278-1.161
	c0,0,0-4.639,0-4.884s0.403-0.252,0.403,0s0,4.654,0,4.654c0.012,0.825,0.724,1.493,2.233,1.391
	c-0.404-0.325-0.528-0.653-0.528-1.129s0-5.046,0-5.046s0.416-0.021,0.416,0.419c0,0.441,0,3.519,0,4.256
	c0,0.947,1.138,1.338,2.436,1.302c-0.426-0.318-0.714-0.698-0.715-1.207v-5.117c-0.044-0.753-0.351-1.462-0.95-2.122
	c2.911-0.447,5.008-1.608,6.053-3.691c1.723-0.059,3.266,0.083,4.705,0.437l0.063-0.26
	C268.916,257.151,267.394,257.006,265.699,257.054z M251.896,263.295c-0.149,0-0.271,0.087-0.271,0.192
	c0,0.106,0.122,0.192,0.271,0.192c0.15,0,0.271-0.086,0.271-0.192S252.046,263.295,251.896,263.295z M251.002,263.277
	c-0.149,0-0.271,0.087-0.271,0.192c0,0.106,0.121,0.192,0.271,0.192s0.271-0.086,0.271-0.192
	C251.273,263.364,251.151,263.277,251.002,263.277z M250.096,263.248c-0.149,0-0.271,0.087-0.271,0.192
	c0,0.106,0.122,0.192,0.271,0.192s0.271-0.086,0.271-0.192C250.367,263.335,250.246,263.248,250.096,263.248z M249.237,262.995
	c-0.15,0-0.271,0.086-0.271,0.192s0.121,0.192,0.271,0.192c0.149,0,0.271-0.087,0.271-0.192
	C249.508,263.081,249.387,262.995,249.237,262.995z"/>
</svg>
