<?xml version="1.0" encoding="utf-8"?>
<!-- Generator: Adobe Illustrator 16.0.0, SVG Export Plug-In . SVG Version: 6.00 Build 0)  -->
<!DOCTYPE svg PUBLIC "-//W3C//DTD SVG 1.1//EN" "http://www.w3.org/Graphics/SVG/1.1/DTD/svg11.dtd">
<svg version="1.1" id="Layer_1" xmlns="http://www.w3.org/2000/svg" xmlns:xlink="http://www.w3.org/1999/xlink" x="0px" y="0px"
	 width="40px" height="40px" viewBox="236 236 40 40" enable-background="new 236 236 40 40" xml:space="preserve">
<path id="link-icon" d="M246.314,250.532c0.732-0.732,1.544-1.335,2.407-1.812c4.811-2.652,10.982-1.242,14.075,3.448l-3.742,3.743
	c-1.074-2.449-3.738-3.841-6.39-3.248c-0.999,0.223-1.947,0.721-2.723,1.496l-7.174,7.175c-2.178,2.178-2.178,5.722,0,7.899
	c2.178,2.179,5.722,2.179,7.9,0l2.212-2.211c2.01,0.798,4.169,1.117,6.297,0.957l-4.881,4.882c-4.185,4.185-10.97,4.185-15.155,0
	c-4.185-4.186-4.185-10.971,0-15.155L246.314,250.532z M257.707,239.139l-4.881,4.881c2.129-0.16,4.287,0.16,6.297,0.958
	l2.212-2.212c2.178-2.178,5.722-2.178,7.899,0c2.179,2.178,2.179,5.722,0,7.9l-7.174,7.175c-2.185,2.185-5.734,2.166-7.9,0
	c-0.505-0.505-0.941-1.134-1.212-1.752l-3.742,3.742c0.393,0.597,0.802,1.112,1.327,1.637c1.354,1.354,3.078,2.363,5.06,2.84
	c2.569,0.619,5.322,0.276,7.688-1.028c0.863-0.476,1.676-1.079,2.407-1.812l7.175-7.174c4.185-4.185,4.185-10.97,0-15.155
	C268.677,234.954,261.892,234.954,257.707,239.139z"/>
</svg>
