<?xml version="1.0" encoding="UTF-8" standalone="no"?>
<svg
   xmlns:dc="http://purl.org/dc/elements/1.1/"
   xmlns:cc="http://creativecommons.org/ns#"
   xmlns:rdf="http://www.w3.org/1999/02/22-rdf-syntax-ns#"
   xmlns:svg="http://www.w3.org/2000/svg"
   xmlns="http://www.w3.org/2000/svg"
   xmlns:sodipodi="http://sodipodi.sourceforge.net/DTD/sodipodi-0.dtd"
   xmlns:inkscape="http://www.inkscape.org/namespaces/inkscape"
   width="61.076954mm"
   height="65.47831mm"
   viewBox="0 0 216.4144 232.00976"
   version="1.1"
   id="svg3784"
   sodipodi:docname="mastodon-icon.svg"
   inkscape:version="0.92.4 (5da689c313, 2019-01-14)">
  <metadata
     id="metadata3790">
    <rdf:RDF>
      <cc:Work
         rdf:about="">
        <dc:format>image/svg+xml</dc:format>
        <dc:type
           rdf:resource="http://purl.org/dc/dcmitype/StillImage" />
      </cc:Work>
    </rdf:RDF>
  </metadata>
  <defs
     id="defs3788" />
  <sodipodi:namedview
     pagecolor="#ffffff"
     bordercolor="#666666"
     borderopacity="1"
     objecttolerance="10"
     gridtolerance="10"
     guidetolerance="10"
     inkscape:pageopacity="0"
     inkscape:pageshadow="2"
     inkscape:window-width="1920"
     inkscape:window-height="1060"
     id="namedview3786"
     showgrid="false"
     inkscape:zoom="0.95362368"
     inkscape:cx="-58.651843"
     inkscape:cy="123.73854"
     inkscape:window-x="0"
     inkscape:window-y="20"
     inkscape:window-maximized="0"
     inkscape:current-layer="svg3784" />
  <path
     d="M211.80734 139.0875c-3.18125 16.36625-28.4925 34.2775-57.5625 37.74875-15.15875 1.80875-30.08375 3.47125-45.99875 2.74125-26.0275-1.1925-46.565-6.2125-46.565-6.2125 0 2.53375.15625 4.94625.46875 7.2025 3.38375 25.68625 25.47 27.225 46.39125 27.9425 21.11625.7225 39.91875-5.20625 39.91875-5.20625l.8675 19.09s-14.77 7.93125-41.08125 9.39c-14.50875.7975-32.52375-.365-53.50625-5.91875C9.23234 213.82 1.40609 165.31125.20859 116.09125c-.365-14.61375-.14-28.39375-.14-39.91875 0-50.33 32.97625-65.0825 32.97625-65.0825C49.67234 3.45375 78.20359.2425 107.86484 0h.72875c29.66125.2425 58.21125 3.45375 74.8375 11.09 0 0 32.975 14.7525 32.975 65.0825 0 0 .41375 37.13375-4.59875 62.915"
     fill="#3088d4"
     id="path3780" />
  <path
     d="M177.50984 80.077v60.94125h-24.14375v-59.15c0-12.46875-5.24625-18.7975-15.74-18.7975-11.6025 0-17.4175 7.5075-17.4175 22.3525v32.37625H96.20734V85.42325c0-14.845-5.81625-22.3525-17.41875-22.3525-10.49375 0-15.74 6.32875-15.74 18.7975v59.15H38.90484V80.077c0-12.455 3.17125-22.3525 9.54125-29.675 6.56875-7.3225 15.17125-11.07625 25.85-11.07625 12.355 0 21.71125 4.74875 27.8975 14.2475l6.01375 10.08125 6.015-10.08125c6.185-9.49875 15.54125-14.2475 27.8975-14.2475 10.6775 0 19.28 3.75375 25.85 11.07625 6.36875 7.3225 9.54 17.22 9.54 29.675"
     fill="#fff"
     id="path3782" />
  <path
     style="fill:#000000;stroke-width:1.04863167;fill-opacity:1"
     d="M 91.302487,246.43182 C 69.586529,243.83639 52.192875,239.34993 42.016798,233.71924 23.386112,223.41039 10.402097,201.32062 4.8619637,170.50751 1.824982,153.61643 0.81978451,137.37631 0.70797887,103.39508 0.61159819,74.101962 0.86375657,68.07144 2.5030403,60.465096 7.1920402,38.70794 18.92659,21.361762 34.800963,12.721845 41.066418,9.3117572 55.819451,5.4957307 72.145855,3.0621978 c 17.609018,-2.62471328 68.941305,-2.62471328 86.550325,0 32.60276,4.8596065 45.07972,10.8768182 56.89942,27.4406582 12.77799,17.906733 16.29448,36.672125 14.15071,75.513804 -1.50451,27.25952 -3.63236,42.43032 -6.83874,48.75781 -4.85938,9.58953 -15.10137,18.12421 -30.2304,25.1911 -10.65271,4.97597 -17.70204,6.8106 -33.73794,8.7805 -29.38354,3.60956 -50.48089,3.17073 -79.447003,-1.65249 -7.360764,-1.22565 -13.661063,-1.95061 -14.000665,-1.611 -0.339601,0.3396 -0.06979,3.86439 0.599578,7.83286 2.233916,13.24415 9.243058,21.72498 21.352296,25.83557 12.969244,4.40251 41.088344,4.70649 60.485164,0.65386 5.4791,-1.14476 10.07997,-2.08758 10.22416,-2.09515 0.14418,-0.007 0.26215,4.41158 0.26215,9.82036 v 9.83415 l -6.02963,2.25405 c -11.0954,4.14778 -25.0313,6.44061 -41.68311,6.85796 -8.65121,0.21683 -17.381067,0.19684 -19.399683,-0.0445 z M 67.351376,115.19219 c 0.35481,-35.184248 0.371708,-35.417172 2.888068,-39.810022 3.319041,-5.794101 7.989009,-8.027899 15.483737,-7.406378 6.429859,0.533214 10.286686,2.904129 13.444043,8.264483 1.874346,3.182149 2.152996,6.012652 2.621576,26.630497 l 0.52432,23.06989 h 13.1079 13.10789 l 0.52432,-23.06989 c 0.46859,-20.617845 0.74723,-23.448348 2.62158,-26.630497 3.15735,-5.360354 7.01418,-7.731269 13.44404,-8.264483 7.49473,-0.621521 12.1647,1.612277 15.48374,7.406378 2.51636,4.39285 2.53325,4.625774 2.88807,39.810022 l 0.35689,35.39132 h 13.01316 13.01315 l -0.0182,-35.39132 c -0.0196,-38.262391 -0.68968,-44.806447 -5.57452,-54.446233 -3.1868,-6.288855 -10.60451,-13.310258 -17.24675,-16.32532 -3.95855,-1.796877 -7.04824,-2.258969 -15.43554,-2.308536 -9.34807,-0.05524 -11.11378,0.246193 -16.26689,2.777039 -6.8677,3.372928 -11.1317,7.572225 -16.10322,15.858892 l -3.66825,6.114321 -4.32125,-6.842216 C 106.21787,52.069415 101.19814,47.348405 94.501657,44.278629 87.606455,41.117755 70.893723,41.204568 63.76652,44.43828 52.54428,49.529968 44.207608,61.145153 41.970074,74.806488 41.425706,78.130146 40.977581,96.539654 40.97424,115.71651 l -0.0061,34.867 H 53.981322 66.99448 Z"
     id="path3792"
     inkscape:connector-curvature="0"
     transform="scale(0.93749999)" />
</svg>
