<svg width="56.693" height="56.693" xmlns="http://www.w3.org/2000/svg" xmlns:svg="http://www.w3.org/2000/svg"> <g>  <title>Layer 1</title>  <g stroke="null" id="svg_1">   <path stroke="null" id="svg_2" d="m39.10025,25.50019c-3.60223,0 -4.10273,3.59543 -4.10273,3.59543l7.65844,0c0,0 0.0488,-3.59543 -3.55571,-3.59543z"/>   <path stroke="null" id="svg_3" d="m21.72464,29.09562l-6.78909,0l0,6.23298l6.01053,0c0.10214,0 0.25536,0.00227 0.43468,0c0.96695,-0.0227 2.79985,-0.30416 2.79985,-3.03024c0,-3.23566 -2.45597,-3.20275 -2.45597,-3.20275z"/>   <path stroke="null" id="svg_4" d="m28.11083,0.35491c-15.43491,0 -27.9474,12.51022 -27.9474,27.94513c0,15.43491 12.51249,27.9474 27.9474,27.9474c15.43264,0 27.94513,-12.51249 27.94513,-27.9474c0,-15.43377 -12.51363,-27.94513 -27.94513,-27.94513zm5.88229,17.17134l9.62072,0l0,2.87135l-9.62072,0l0,-2.87135zm-4.86313,15.06265c0,7.11708 -7.40535,6.88216 -7.40535,6.88216l-6.78909,0l-0.19861,0l-5.14686,0l0,-23.31806l5.14686,0l0.19861,0l6.78909,0c3.68622,0 6.59615,2.03605 6.59615,6.20801c0,4.17197 -3.55797,4.43754 -3.55797,4.43754c4.69062,0 4.36717,5.79036 4.36717,5.79036zm17.99756,-0.38133l-12.08349,0c0,4.33086 4.10273,4.05848 4.10273,4.05848c3.87462,0 3.73956,-2.50931 3.73956,-2.50931l4.10501,0c0,6.65857 -7.98189,6.20234 -7.98189,6.20234c-9.57418,0 -8.95792,-8.9148 -8.95792,-8.9148s-0.00908,-8.95792 8.95792,-8.95792c9.43913,0 8.11808,10.12121 8.11808,10.12121z"/>   <path stroke="null" id="svg_5" d="m23.37367,22.72304c0,-2.42532 -1.64904,-2.42532 -1.64904,-2.42532l-0.87389,0l-5.9152,0l0,5.20247l6.36804,0c1.0986,0 2.07009,-0.35296 2.07009,-2.77715z"/>  </g> </g></svg>