<?xml version="1.0" encoding="utf-8"?>
<!-- Generator: Adobe Illustrator 16.2.1, SVG Export Plug-In . SVG Version: 6.00 Build 0)  -->
<!DOCTYPE svg PUBLIC "-//W3C//DTD SVG 1.1//EN" "http://www.w3.org/Graphics/SVG/1.1/DTD/svg11.dtd">
<svg version="1.1" id="Layer_1" xmlns="http://www.w3.org/2000/svg" xmlns:xlink="http://www.w3.org/1999/xlink" x="0px" y="0px"
	 width="288px" height="54.713px" viewBox="0 0 288 54.713" enable-background="new 0 0 288 54.713" xml:space="preserve">
<g>
	<path fill="#535456" d="M43.094,35.482c0,5.695,2.189,7.572,8.134,7.572c4.757,0,8.886-0.813,10.138-1.064
		c0.688-0.125,0.938,0.25,0.938,0.939v3.629c0,0.5-0.251,0.813-0.75,0.938c-2.129,0.501-7.572,1.126-11.765,1.126
		c-11.452,0-14.143-4.568-14.143-13.204v-7.008c0-7.947,3.316-12.328,14.768-12.328c0.626,0,1.378,0,2.19,0.062
		c-1.252-1.126-2.003-2.879-2.003-5.694c0-7.446,5.444-10.325,13.454-10.325c9.262,0,15.207,3.504,15.207,15.519v3.567
		c2.815-1.502,7.133-3.129,11.952-3.129c4.442,0,8.259,1.377,8.259,8.886v16.083c0,1.814,0.563,2.252,1.69,2.252
		c0.438,0,0.688,0,1.376-0.125c0.563-0.063,0.814,0,0.814,0.75v3.317c0,0.5-0.188,0.688-0.689,0.876
		c-0.75,0.25-2.44,0.438-4.506,0.438c-5.255,0-6.194-3.003-6.194-6.633V26.472c0-3.692-1.877-4.505-4.129-4.505
		c-2.379,0-5.445,0.875-8.573,2.377v16.583c0,1.377,0.188,1.877,1.688,2.003l1.753,0.125c0.562,0.062,0.626,0.25,0.626,0.751v3.504
		c0,0.438-0.188,0.688-0.688,0.688H68.249c-0.501,0-0.752-0.188-0.752-0.688v-3.504c0-0.501,0.188-0.625,0.625-0.688l1.815-0.188
		c1.377-0.188,1.628-0.563,1.628-1.94V16.084c0-7.509-2.44-10.388-7.948-10.388c-4.567,0-6.633,2.253-6.633,5.945
		c0,2.69,1.064,4.255,3.066,5.069l0.814,0.125c0.688,0.188,0.688,0.5,0.688,0.938l-0.501,8.886
		c-0.063,0.688-0.375,0.813-0.939,0.813h-2.94c-0.5,0-0.688-0.25-0.813-0.813l-0.939-4.881c-1.376-0.188-3.379-0.313-5.319-0.313
		c-5.132,0-7.007,3.066-7.007,6.883V35.482z"/>
	<path fill="#535456" d="M134.644,41.052c0,1.814,0.564,2.252,1.628,2.252c0.438,0,0.688,0,1.439-0.125
		c0.5-0.063,0.813,0,0.813,0.75v3.317c0,0.5-0.188,0.688-0.688,0.876c-0.812,0.25-2.44,0.438-4.506,0.438
		c-2.753,0-4.316-0.813-5.193-2.127c-2.128,1.063-5.757,2.19-10.263,2.19c-9.387,0-10.7-4.255-10.7-9.011v-1.252
		c0-4.944,1.438-9.136,11.889-9.136c3.317,0,6.258,0.188,8.073,0.375v-3.192c0-4.068-1.063-5.256-5.883-5.256
		c-2.128,0-4.568,0.062-6.07,0.312l-1.001,4.631c-0.124,0.688-0.25,0.876-0.812,0.876h-3.192c-0.562,0-0.75-0.188-0.813-0.876
		l-0.438-7.572c-0.063-1.064-0.125-1.439,0.625-1.69c1.252-0.375,7.134-0.751,11.765-0.751c8.324,0,13.328,1.064,13.328,10.451
		V41.052z M114.683,39.676c0,3.003,1.751,3.754,5.067,3.754c2.568,0,4.57-0.5,7.386-1.69v-7.071
		c-2.753-0.125-4.756-0.188-7.135-0.188c-3.818,0-5.318,1.189-5.318,3.817V39.676z"/>
	<path fill="#535456" d="M170.428,41.052c0,1.814,0.562,2.252,1.688,2.252c0.438,0,0.688,0,1.377-0.125
		c0.563-0.063,0.812,0,0.812,0.75v3.317c0,0.5-0.187,0.688-0.688,0.876c-0.75,0.25-2.441,0.438-4.506,0.438
		c-2.689,0-4.255-0.751-5.131-2.002c-2.065,1.001-5.945,2.065-10.326,2.065c-9.072,0-11.764-3.88-11.764-12.328v-7.822
		c0-8.51,2.691-12.39,11.764-12.39c3.817,0,7.26,1.001,9.262,1.815V8.012c0-1.69-0.25-1.877-1.626-2.065l-1.252-0.188
		c-0.688-0.125-0.814-0.312-0.814-1.001V2.192c0-0.626,0.188-0.814,0.814-0.876l4.881-0.813c1.815-0.312,3.005-0.5,3.943-0.5
		c1.188,0,1.564,0.688,1.564,1.502V41.052z M162.917,23.093c-1.753-0.814-3.942-1.564-6.821-1.564c-4.567,0-6.568,1.126-6.568,6.883
		v7.947c0,5.32,2.001,6.822,6.568,6.822c2.628,0,5.068-0.751,6.821-1.502V23.093z"/>
	<path fill="#535456" d="M185.259,35.295v0.188c0,5.132,0.812,7.572,8.697,7.572c4.756,0,8.511-0.688,11.138-1.126
		c1.064-0.188,1.253-0.062,1.253,0.876v3.379c0,1.064-0.188,1.189-1.189,1.314c-1.877,0.375-7.509,1.126-12.827,1.126
		c-11.515,0-14.518-3.692-14.518-13.204v-6.695c0-10.7,5.632-12.641,14.767-12.641c8.824,0,13.329,1.689,13.329,9.762
		c0,8.135-4.254,9.449-14.205,9.449H185.259z M185.259,30.352h6.195c6.069,0,7.07-0.75,7.07-4.255c0-3.442-1.189-4.943-6.258-4.943
		c-5.382,0-7.008,1.563-7.008,7.321V30.352z"/>
	<path fill="#535456" d="M229.313,47.248c-0.251,0.563-0.438,0.751-0.939,0.751h-5.569c-0.5,0-0.751-0.188-0.938-0.751
		l-9.511-23.779c-0.501-1.189-0.751-1.439-1.565-1.564l-1.689-0.188c-0.376-0.062-0.501-0.375-0.501-0.751v-3.63
		c0-0.375,0.188-0.625,0.563-0.625h13.142c0.563,0,0.625,0.188,0.625,0.625v3.505c0,0.375-0.188,0.625-0.563,0.625l-1.062,0.188
		c-1.438,0.125-1.564,0.313-1.001,1.814l6.383,16.833l6.508-16.708c0.563-1.564,0.376-1.689-1.064-1.814l-1.127-0.188
		c-0.375,0-0.5-0.25-0.5-0.626v-3.442c0-0.688,0.062-0.813,0.751-0.813h10.763c0.438,0,0.626,0.25,0.626,0.625v3.63
		c0,0.375-0.188,0.688-0.563,0.751l-1.689,0.188c-0.876,0.125-1.063,0.375-1.439,1.314L229.313,47.248z"/>
	<path fill="#15A8DB" d="M30.438,20.23v-3.433c0-0.266-0.134-0.511-0.357-0.657c-0.128-0.083-0.275-0.125-0.425-0.125
		c-0.111,0-0.22,0.022-0.325,0.07L0.464,29.806C0.183,29.931,0,30.211,0,30.52v2.982c0,0.302,0.176,0.579,0.443,0.705L29.322,48.67
		c0.103,0.049,0.218,0.074,0.333,0.074c0.148,0,0.294-0.042,0.418-0.121c0.228-0.145,0.364-0.391,0.364-0.661v-3.429
		c0-0.302-0.178-0.581-0.445-0.706L6.259,32.053l23.713-11.106C30.255,20.821,30.438,20.54,30.438,20.23z"/>
	<path fill="#15A8DB" d="M287.527,29.809l-28.879-13.725c-0.101-0.046-0.209-0.068-0.32-0.068c-0.149,0-0.297,0.043-0.427,0.126
		c-0.222,0.145-0.355,0.391-0.355,0.656v3.433c0,0.31,0.183,0.591,0.461,0.714l23.719,11.109l-23.729,11.772
		c-0.273,0.127-0.451,0.406-0.451,0.708v3.429c0,0.27,0.137,0.516,0.363,0.66c0.125,0.08,0.271,0.122,0.419,0.122
		c0.115,0,0.23-0.025,0.34-0.076l28.867-14.458c0.273-0.129,0.449-0.406,0.449-0.708V30.52
		C287.984,30.211,287.802,29.931,287.527,29.809z"/>
	<path fill="#15A8DB" d="M258.247,0.312C258.102,0.116,257.868,0,257.623,0h-2.965c-0.347,0-0.656,0.233-0.752,0.567l-15.381,53.151
		c-0.066,0.238-0.019,0.487,0.129,0.684c0.146,0.194,0.379,0.311,0.624,0.311h2.963c0.348,0,0.657-0.233,0.753-0.567l15.382-53.151
		C258.441,0.76,258.393,0.504,258.247,0.312z"/>
</g>
<g>
</g>
<g>
</g>
<g>
</g>
<g>
</g>
<g>
</g>
<g>
</g>
</svg>
