<?xml version="1.0" encoding="utf-8"?>
<!-- Generator: Adobe Illustrator 16.0.0, SVG Export Plug-In . SVG Version: 6.00 Build 0)  -->
<!DOCTYPE svg PUBLIC "-//W3C//DTD SVG 1.1//EN" "http://www.w3.org/Graphics/SVG/1.1/DTD/svg11.dtd">
<svg version="1.1" id="Layer_1" xmlns="http://www.w3.org/2000/svg" xmlns:xlink="http://www.w3.org/1999/xlink" x="0px" y="0px"
	 width="50px" height="40px" viewBox="0 0 50 40" enable-background="new 0 0 50 40" xml:space="preserve">
<path id="twitter-icon" d="M49.615,4.677c-1.846,0.861-3.814,1.354-5.785,1.6c2.093-1.23,3.691-3.2,4.432-5.538
	c-1.97,1.107-4.062,1.969-6.4,2.461C40.016,1.231,37.432,0,34.479,0c-6.523,0-11.325,6.031-9.848,12.431
	C16.261,12.062,8.754,8,3.831,1.847C1.247,6.4,2.477,12.307,6.907,15.385c-1.6,0-3.199-0.492-4.553-1.231
	c-0.123,4.677,3.2,9.108,8.123,10.092C9,24.615,7.523,24.738,5.923,24.369c1.231,4.061,5.046,6.893,9.478,7.016
	c-4.308,3.199-9.601,4.678-15.016,4.062C4.816,38.277,10.108,40,15.893,40C34.6,40,45.186,24.125,44.57,9.97
	C46.538,8.492,48.262,6.646,49.615,4.677z"/>
</svg>
